<?xml version="1.0" encoding="utf-8"?>
<!-- Generator: Adobe Illustrator 25.3.1, SVG Export Plug-In . SVG Version: 6.00 Build 0)  -->
<svg version="1.1" id="Layer_1" xmlns="http://www.w3.org/2000/svg" xmlns:xlink="http://www.w3.org/1999/xlink" x="0px" y="0px"
	 viewBox="0 0 160.3 155.9" style="enable-background:new 0 0 160.3 155.9;" xml:space="preserve">
<style type="text/css">
	.st0{fill:#1A4918;}
	.st1{fill:#267423;}
	.st2{fill:#37A02B;}
	.st3{fill:#205E1D;}
	.st4{fill:#FFFFFF;}
	.st5{fill:#5C975A;}
	.st6{fill:#E6E6E6;}
	.st7{opacity:0.1;enable-background:new    ;}
	.st8{opacity:0.15;enable-background:new    ;}
	.st9{fill:#FD7FD3;}
	.st10{fill:#EE4DB5;}
	.st11{fill:#D53196;}
</style>
<g id="robot">
	<g>
		<path class="st0" d="M63.7,53.6c0,0.2,3.3,16.5,5.2,21.5c0.2,0.7,0.6,1.4,1.1,2l0.1,0.1c0.6,0.4,1.2,0.7,5.2,0l0.9,5.4
			c-5.2,0.9-6.9,0.5-9-0.8l-0.1-0.1c-1.6-1.1-2.8-2.8-3.4-4.7c-2-5.4-5.3-21.7-5.4-22.3L63.7,53.6z"/>
	</g>
	<g>
		<ellipse class="st1" cx="74.4" cy="81.6" rx="4.6" ry="5.7"/>
	</g>
	<g>
		<path class="st2" d="M55,55.2c0.1,0.4,0.5,0.6,0.8,0.5l10.5-1.8c0.4-0.1,0.6-0.4,0.6-0.8l0,0l0-0.1l-0.1-0.5l-0.9-5
			c-0.5-2.8-2.5-5.1-5.2-6l0.7,4.1c0.7,0.6,1.2,1.5,1.4,2.4c0,0.1,0.5,3,0.5,3l-5.5,1c0,0-0.5-2.8-0.5-3.1c-0.1-0.8,0-1.7,0.3-2.4
			l-0.7-4.3c-2.2,1.7-3.3,4.5-2.8,7.3l0.9,5.2L55,55V55.2L55,55.2z"/>
	</g>
	<g>
		<path class="st3" d="M130.8,57c3.3,0,6.1-2.3,6.1-5.1s-2.7-5.1-6.1-5.1h-1c-3.3,0-6.1,2.3-6.1,5.1s2.7,5.1,6,5.1H130.8z"/>
	</g>
	<g>
		<path class="st3" d="M79.1,57c-3.3,0-6-2.3-6-5.1s2.7-5.1,6-5.1h1c3.3,0,6,2.3,6,5.1s-2.7,5.1-6,5.1H79.1z"/>
	</g>
	<g>
		<ellipse class="st0" cx="104.9" cy="112" rx="26.4" ry="34"/>
	</g>
	<g>
		<path class="st1" d="M105,146.1c-14.6,0-26.4-15.2-26.4-34c0-3.7,7.3,14.2,13.9,23.1C95.9,139.6,100.1,143.3,105,146.1z"/>
	</g>
	<g>
		<path class="st1" d="M136.1,67c0.1-2.1-2.3-5.3-4.3-5.4l-23.1,1.6c-2.1-0.1-5.4-0.1-7.5,0L78,61.6c-2.1,0.1-4.4,3.4-4.3,5.4
			l2.6,54.7c0,0.3,0.1,0.6,0.2,0.9c1.6,8.4,13.8,13,28.5,13s26.8-4.6,28.5-13c0.1-0.3,0.1-0.6,0.2-0.9L136.1,67z"/>
	</g>
	<g>
		<path class="st2" d="M104.9,63.1c-1.3,0-2.7,0-3.7,0.1L78,61.6c-2.1,0.1-4.4,3.4-4.3,5.4l2.6,54.7c0,0.3,0.1,0.6,0.2,0.9
			c1.6,8.4,13.8,13,28.5,13"/>
	</g>
	<g>
		<path class="st0" d="M133.3,51.7c-1.7-11.8-13.8-21-28.4-21s-26.7,9.2-28.4,21l-0.2,10.7c0,0,11,4.9,28.6,4.9s28.7-4.9,28.7-4.9
			L133.3,51.7z"/>
	</g>
	<g>
		<path class="st1" d="M89.2,34.6c-6.9,3.8-11.7,10-12.8,17.1l-0.2,10.7c4.2,1.7,8.5,2.9,13,3.6"/>
	</g>
	<g>
		<path class="st4" d="M124.1,43c-6.2-1.4-12.5-2.1-18.8-2.1C99,40.9,92.7,41.7,86.5,43c-2.5,0.9-4,3.8-3.3,6.9
			c1.9,9.4,17.1,14.3,22.1,14.3s20.2-4.9,22.1-14.3C128.1,46.8,126.6,43.9,124.1,43z"/>
	</g>
	<g>
		<path class="st5" d="M97.6,53.9c-0.2,0-0.4,0-0.6-0.1L94,52c-0.1,0-0.2-0.1-0.2-0.2c-0.1-0.1-0.3-0.3-0.3-0.5c0-0.1,0-0.3,0-0.4
			v-3.4c0-0.1,0-0.3,0-0.4c0-0.1,0-0.1,0.1-0.2c0.1-0.2,0.3-0.4,0.5-0.5l3-1.7c0.4-0.2,0.8-0.2,1.2,0l3,1.8c0.2,0.1,0.3,0.3,0.5,0.5
			c0,0.1,0.1,0.1,0.1,0.2c0,0.1,0,0.3,0,0.4v3.3c0,0.1,0,0.3,0,0.4c0,0.1-0.1,0.2-0.1,0.2c-0.1,0.2-0.3,0.3-0.4,0.4l-3,1.7
			C98,53.9,97.8,53.9,97.6,53.9z M95.1,50.8l2.6,1.5l2.5-1.5v-3.1l-2.6-1.5l-2.5,1.5V50.8z M100.4,47.8
			C100.4,47.8,100.4,47.9,100.4,47.8L100.4,47.8z M94.8,47.8L94.8,47.8C94.8,47.8,94.8,47.8,94.8,47.8z M100.2,47.3
			C100.2,47.3,100.2,47.3,100.2,47.3C100.2,47.3,100.2,47.3,100.2,47.3z"/>
	</g>
	<g>
		<path class="st5" d="M112.9,53.9c-0.1,0-0.2,0-0.3,0c-0.1,0-0.1,0-0.2-0.1l-3-1.7c-0.1,0-0.2-0.1-0.2-0.2
			c-0.1-0.1-0.2-0.2-0.3-0.4c0-0.2-0.1-0.3,0-0.5v-3.3c0-0.2,0-0.3,0-0.5c0,0,0-0.1,0.1-0.1c0.1-0.2,0.3-0.4,0.5-0.5l3-1.7
			c0.1,0,0.1-0.1,0.2-0.1c0.1,0,0.3,0,0.4,0c0.1,0,0.2,0,0.4,0c0.1,0,0.2,0,0.2,0.1l3,1.7c0.2,0.1,0.3,0.3,0.5,0.5
			c0,0.1,0.1,0.1,0.1,0.2c0,0.1,0,0.3,0,0.4v3.3c0,0.1,0,0.3,0,0.4c0,0.1,0,0.2-0.1,0.2c-0.1,0.2-0.3,0.3-0.4,0.4l-3,1.7
			c-0.1,0-0.1,0.1-0.2,0.1c-0.1,0-0.2,0-0.4,0C112.9,53.9,112.9,53.9,112.9,53.9z M113.1,52.3L113.1,52.3L113.1,52.3z M110.4,50.8
			l2.5,1.5l2.5-1.5v-3.1l-2.5-1.5l-2.5,1.5V50.8z M115.8,47.8C115.8,47.8,115.8,47.9,115.8,47.8L115.8,47.8z M110.2,47.8L110.2,47.8
			C110.2,47.8,110.2,47.8,110.2,47.8z M115.5,47.3C115.5,47.3,115.5,47.3,115.5,47.3C115.5,47.3,115.5,47.3,115.5,47.3z M113.1,46.2
			L113.1,46.2L113.1,46.2z"/>
	</g>
	<g>
		<path class="st0" d="M142.5,109.7c0-0.2-0.5-16.8-1.5-22c-0.1-0.8-0.4-1.5-0.8-2.1l-0.2-0.2c-0.5-0.5-1-0.9-5.1-0.9V79
			c5.2,0,6.9,0.7,8.7,2.3l0.1,0.1c1.4,1.4,2.3,3.3,2.6,5.2c1.1,5.6,1.6,22.2,1.6,22.9L142.5,109.7z"/>
	</g>
	<g>
		<ellipse class="st1" cx="134.9" cy="81.7" rx="4.6" ry="5.7"/>
	</g>
	<g>
		<path class="st2" d="M151.3,109.7c0-0.4-0.4-0.6-0.7-0.7h-10.7c-0.4,0-0.7,0.3-0.7,0.7l0,0v5.7c0,2.9,1.6,5.5,4.1,6.8V118
			c-0.6-0.8-0.9-1.7-0.9-2.6c0-0.2,0-3.1,0-3.1h5.6c0,0,0,2.8,0,3.2c0,0.8-0.2,1.6-0.7,2.3v4.3c2.5-1.3,4-3.9,4-6.7L151.3,109.7
			L151.3,109.7z"/>
	</g>
	<g>
		<path class="st0" d="M94.4,102.9c0.1,0.2,0.3,0.3,0.5,0.5l9.4,5.4l0,0c0.4,0.2,0.9,0.2,1.3,0l9.4-5.4c0.2-0.1,0.3-0.3,0.5-0.5
			c0.1-0.2,0.2-0.4,0.2-0.6V91.4l0,0c0-0.2-0.1-0.4-0.2-0.6c-0.1-0.2-0.3-0.3-0.5-0.5l-9.4-5.4l0,0c-0.4-0.2-0.9-0.2-1.3,0l0,0
			l-9.4,5.4c-0.2,0.1-0.4,0.3-0.5,0.5c-0.1,0.2-0.2,0.4-0.2,0.6l0,0v10.9C94.2,102.5,94.3,102.7,94.4,102.9"/>
	</g>
	<g>
		<path class="st6" d="M73.6,53.3c0,14.4,14.1,26.1,31.4,26.1s31.4-11.7,31.4-26.1c0,0-4.6,20.4-31.4,21c0,0-22.3,1.1-30.8-18.9
			L73.6,53.3z"/>
	</g>
	<g class="st7">
		<ellipse class="st4" cx="105" cy="48.4" rx="31.8" ry="26"/>
	</g>
	<g>
		<path class="st4" d="M104.9,74.9c-17.8,0-32.4-11.9-32.4-26.5c0-14.6,14.5-26.5,32.4-26.5s32.3,11.9,32.3,26.5
			C137.3,63,122.8,74.9,104.9,74.9z M104.9,22.9c-17.3,0-31.4,11.4-31.4,25.5s14.1,25.5,31.4,25.5s31.3-11.4,31.3-25.5
			S122.2,22.9,104.9,22.9z"/>
	</g>
	<g class="st8">
		<path class="st4" d="M86,27.5c0,0,42.6,2.9,45.6,35.2c0,0,14.4-19.8-7.7-35.1C123.9,27.6,106.1,16.4,86,27.5z"/>
		<path class="st4" d="M131.6,62.8C131.5,62.8,131.5,62.8,131.6,62.8c-0.1,0-0.1-0.1-0.1-0.1c-0.7-7.3-3.5-13.8-8.3-19.1
			c-3.9-4.2-9.1-7.8-15.5-10.5c-10.9-4.7-21.5-5.5-21.6-5.5c-0.1,0-0.1,0-0.1-0.1c0-0.1,0-0.1,0.1-0.1c10.4-5.7,20.2-5.4,26.5-4.1
			c7,1.4,11.5,4.2,11.5,4.2c6.9,4.7,10.9,10.4,12,16.9c1.7,9.9-4.3,18.3-4.3,18.4C131.6,62.8,131.6,62.8,131.6,62.8z M86.4,27.4
			c2.1,0.2,11.6,1.3,21.3,5.4c6.4,2.8,11.7,6.3,15.6,10.6c4.8,5.3,7.6,11.6,8.4,18.9c1-1.5,5.6-9.1,4.1-17.9
			c-1.1-6.4-5.1-12-11.9-16.7c0,0,0,0,0,0C123.6,27.5,106.1,16.8,86.4,27.4z"/>
	</g>
	<g>
		<rect x="118.2" y="12.9" class="st4" width="1" height="12"/>
	</g>
	<g>
		<circle class="st4" cx="118.7" cy="13.2" r="1.9"/>
	</g>
	<g>
		<path class="st4" d="M59.3,51.3c-0.1,0-0.2,0-0.2-0.1L35.9,37.9c-0.2-0.1-0.3-0.4-0.2-0.7c0.1-0.2,0.4-0.3,0.7-0.2l23.2,13.4
			c0.2,0.1,0.3,0.4,0.2,0.7C59.7,51.2,59.5,51.3,59.3,51.3z"/>
	</g>
	<g>
		<path class="st4" d="M13,51.3c-0.2,0-0.3-0.1-0.4-0.2c-0.1-0.2-0.1-0.5,0.2-0.7L35.9,37c0.2-0.1,0.5-0.1,0.7,0.2
			c0.1,0.2,0.1,0.5-0.2,0.7L13.3,51.3C13.2,51.3,13.1,51.3,13,51.3z"/>
	</g>
	<g>
		<path class="st4" d="M36.2,38c-0.3,0-0.5-0.2-0.5-0.5V10.7c0-0.3,0.2-0.5,0.5-0.5s0.5,0.2,0.5,0.5v26.8C36.7,37.7,36.5,38,36.2,38
			z"/>
	</g>
	<g>
		<polygon class="st9" points="36.2,37.5 36.2,56.5 52.7,47 52.7,27.9 		"/>
	</g>
	<g>
		<polygon class="st10" points="36.2,18.3 19.6,27.9 36.2,37.5 52.7,27.9 		"/>
	</g>
	<g>
		<polygon class="st11" points="19.6,27.9 19.6,47 36.2,56.5 36.2,37.5 		"/>
	</g>
	<g>
		<path class="st4" d="M36.2,64.7c-0.1,0-0.2,0-0.2-0.1L12.8,51.3c-0.2-0.1-0.2-0.3-0.2-0.4V24.1c0-0.2,0.1-0.3,0.2-0.4l23.2-13.4
			c0.2-0.1,0.3-0.1,0.5,0l23.2,13.4c0.2,0.1,0.2,0.3,0.2,0.4v26.8c0,0.2-0.1,0.3-0.2,0.4L36.4,64.6C36.4,64.7,36.3,64.7,36.2,64.7z
			 M13.5,50.5l22.7,13.1l22.7-13.1V24.4L36.2,11.3L13.5,24.4V50.5z M59.4,50.8L59.4,50.8L59.4,50.8z"/>
	</g>
	<g>
		<path class="st4" d="M36.2,38c-0.1,0-0.2,0-0.2-0.1L12.8,24.5c-0.2-0.1-0.3-0.4-0.2-0.7c0.1-0.2,0.4-0.3,0.7-0.2L36.4,37
			c0.2,0.1,0.3,0.4,0.2,0.7C36.5,37.9,36.4,38,36.2,38z"/>
	</g>
	<g>
		<path class="st4" d="M36.2,38c-0.2,0-0.3-0.1-0.4-0.2c-0.1-0.2-0.1-0.5,0.2-0.7l23.2-13.4c0.2-0.1,0.5-0.1,0.7,0.2
			c0.1,0.2,0.1,0.5-0.2,0.7L36.4,37.9C36.4,37.9,36.3,38,36.2,38z"/>
	</g>
	<g>
		<path class="st4" d="M36.2,64.7c-0.3,0-0.5-0.2-0.5-0.5V37.5c0-0.3,0.2-0.5,0.5-0.5s0.5,0.2,0.5,0.5v26.7
			C36.7,64.5,36.5,64.7,36.2,64.7z"/>
	</g>
</g>
</svg>
